<svg xmlns="http://www.w3.org/2000/svg" viewBox="0 0 64 64"><path d="M9 21 25 8l25 7 6 25-16 16-25-5-9-17Z" fill="#59616b" stroke="#090b12" stroke-width="3" stroke-linejoin="round"/><path d="m10 21 15-10 13 7-5 15-19 4Z" fill="#aeb6b7"/><path d="m38 18 12-3 6 25-14 4-9-11Z" fill="#737d86"/><path d="m14 37 19-4 9 11-13 13-15-3Z" fill="#3b444f"/><path d="m25 11 13 7m-23 3 14 7m9-10 12 1m-23 30 9-5" stroke="#d6d8d0" stroke-width="2" stroke-linecap="round" opacity=".7"/><circle cx="45" cy="34" r="3" fill="#272e38"/></svg>