<svg xmlns="http://www.w3.org/2000/svg" viewBox="0 0 128 96"><path d="M64 10 108 25v27c0 18-17 29-44 35C37 81 20 70 20 52V25Z" fill="#59616b" stroke="#0c1324" stroke-width="6" stroke-linejoin="round"/><path d="M64 20 96 31v20c0 11-11 20-32 26-21-6-32-15-32-26V31Z" fill="#aeb6b7"/><path d="m37 35 18-7 9 9 9-9 18 7v14c0 8-10 15-27 20-17-5-27-12-27-20Z" fill="#737d86" stroke="#0c1324" stroke-width="4" stroke-linejoin="round"/><path d="M30 27 18 38m80-11 12 11M30 68l-8 9m76-9 8 9" stroke="#d4b56e" stroke-width="6" stroke-linecap="round"/></svg>