<svg xmlns="http://www.w3.org/2000/svg" viewBox="0 0 256 256"><ellipse cx="128" cy="139" rx="120" ry="31" fill="none" stroke="#0b0c16" stroke-width="13"/><ellipse cx="128" cy="139" rx="115" ry="27" fill="none" stroke="#b78038" stroke-width="7"/><circle cx="128" cy="128" r="78" fill="#8d552b" stroke="#0a0b14" stroke-width="8"/><path d="M63 96c29-26 65-35 101-26l25 28c-37-5-75 4-105 24Z" fill="#dca04b"/><path d="M56 139c38-22 98-20 146 6l-6 27c-43-22-95-27-134-11Z" fill="#6c3a2a"/><path d="M87 176c30-10 58-9 91 4-25 25-63 29-91 13Z" fill="#c27837"/><ellipse cx="128" cy="139" rx="114" ry="26" fill="none" stroke="#e0a650" stroke-width="4"/></svg>