<svg xmlns="http://www.w3.org/2000/svg" viewBox="0 0 256 256"><circle cx="128" cy="128" r="96" fill="#171127" stroke="#080a15" stroke-width="8"/><circle cx="128" cy="128" r="85" fill="#654c95"/><path d="M52 92c33-21 118-26 158 0l-5 17c-38-19-110-14-150 6Z" fill="#9c7ab6"/><path d="M50 138c39-17 116-14 159 9l-6 21c-39-24-112-27-152-8Z" fill="#412f75"/><path d="M58 178c31-11 97-7 137 11-24 19-84 23-125 6Z" fill="#8e669e"/><ellipse cx="158" cy="112" rx="20" ry="13" fill="#cf82a0"/><ellipse cx="158" cy="112" rx="11" ry="7" fill="#5d2a65"/><path d="M74 67c24-16 49-21 77-18-27 8-45 15-61 32Z" fill="#c19ac8" opacity=".55"/></svg>