<svg xmlns="http://www.w3.org/2000/svg" viewBox="0 0 256 256"><ellipse cx="128" cy="139" rx="120" ry="31" fill="none" stroke="#0a0c15" stroke-width="13"/><ellipse cx="128" cy="139" rx="115" ry="27" fill="none" stroke="#b67f37" stroke-width="7"/><circle cx="128" cy="128" r="78" fill="#8b542a" stroke="#0a0b14" stroke-width="8"/><path d="M62 95c28-25 64-34 100-25l25 28c-36-5-74 4-104 23Z" fill="#da9f4a"/><path d="M55 140c36-21 96-19 145 6l-6 27c-41-21-94-26-133-10Z" fill="#6a3929"/><path d="M88 175c29-9 57-8 90 4-24 24-62 28-90 12Z" fill="#c07636"/><ellipse cx="128" cy="139" rx="114" ry="26" fill="none" stroke="#dea54f" stroke-width="4"/></svg>