<svg xmlns="http://www.w3.org/2000/svg" viewBox="0 0 1920 1080"><rect width="1920" height="1080" fill="#0a0d12"/><rect x="0" y="800" width="1920" height="280" fill="#0f1318"/><g stroke="#1a1d2e" stroke-width="2" fill="none" stroke-opacity="0.1"><line x1="100" y1="800" x2="100" y2="1080"/><line x1="400" y1="800" x2="400" y2="1080"/><line x1="700" y1="800" x2="700" y2="1080"/><line x1="1000" y1="800" x2="1000" y2="1080"/><line x1="1300" y1="800" x2="1300" y2="1080"/><line x1="1600" y1="800" x2="1600" y2="1080"/><line x1="1820" y1="800" x2="1820" y2="1080"/></g><g fill="#1a1d2e" fill-opacity="0.05"><circle cx="200" cy="900" r="4"/><circle cx="550" cy="850" r="3"/><circle cx="850" cy="950" r="2"/><circle cx="1150" cy="900" r="4"/><circle cx="1450" cy="850" r="3"/><circle cx="1750" cy="950" r="2"/></g><defs><pattern id="hatch" patternUnits="userSpaceOnUse" width="40" height="40"><path d="M0 40l40-40M0 0l40 40" stroke="#1a1d2e" stroke-width="0.5" stroke-opacity="0.1"/></pattern></defs><rect width="1920" height="1080" fill="url(#hatch)"/></svg>